<svg width="1858" height="447" viewBox="0 0 1858 447" fill="none" xmlns="http://www.w3.org/2000/svg">
<path d="M507.902 141.4H534.902C535.435 145.933 537.502 150.067 541.102 153.8C544.835 157.4 549.702 160.267 555.702 162.4C561.702 164.4 568.435 165.4 575.902 165.4C582.702 165.4 588.302 164.667 592.702 163.2C597.102 161.733 600.368 159.667 602.502 157C604.635 154.333 605.702 151.133 605.702 147.4C605.702 143.8 604.368 141.067 601.702 139.2C599.035 137.2 594.835 135.6 589.102 134.4C583.368 133.067 575.835 131.733 566.502 130.4C559.168 129.333 552.235 127.867 545.702 126C539.168 124 533.368 121.467 528.302 118.4C523.368 115.333 519.435 111.6 516.502 107.2C513.702 102.667 512.302 97.3333 512.302 91.2C512.302 83.6 514.435 76.9333 518.702 71.2C523.102 65.4667 529.568 61 538.102 57.8C546.635 54.6 557.102 53 569.502 53C588.168 53 602.502 57 612.502 65C622.635 72.8667 627.568 83.7333 627.302 97.6H601.302C600.768 89.7333 597.435 84.0667 591.302 80.6C585.302 77.1333 577.702 75.4 568.502 75.4C559.968 75.4 552.902 76.6667 547.302 79.2C541.835 81.7333 539.102 86.0667 539.102 92.2C539.102 94.6 539.768 96.7333 541.102 98.6C542.435 100.333 544.702 101.867 547.902 103.2C551.102 104.533 555.435 105.8 560.902 107C566.368 108.2 573.168 109.4 581.302 110.6C588.902 111.667 595.768 113.133 601.902 115C608.168 116.733 613.502 119.067 617.902 122C622.435 124.8 625.902 128.4 628.302 132.8C630.702 137.2 631.902 142.6 631.902 149C631.902 156.867 629.835 163.733 625.702 169.6C621.702 175.333 615.435 179.8 606.902 183C598.502 186.2 587.568 187.8 574.102 187.8C564.502 187.8 556.035 186.8 548.702 184.8C541.368 182.667 535.035 179.867 529.702 176.4C524.368 172.933 520.035 169.133 516.702 165C513.368 160.867 510.968 156.733 509.502 152.6C508.168 148.467 507.635 144.733 507.902 141.4ZM653.769 45.6H679.769V185H653.769V45.6ZM763.569 85.6L704.369 137.8L704.969 121.8L768.169 185H735.169L680.369 129.2L728.169 85.6H763.569ZM811.652 42V64.8H781.452V42H811.652ZM783.452 85.6H809.452V185H783.452V85.6ZM907.767 187.4C898.967 187.4 891.434 185.867 885.167 182.8C879.034 179.6 874.034 175.467 870.167 170.4C866.301 165.2 863.434 159.533 861.567 153.4C859.701 147.267 858.767 141.267 858.767 135.4C858.767 128.067 859.634 121.267 861.367 115C863.234 108.733 866.101 103.267 869.967 98.6C873.834 93.8 878.834 90.0667 884.967 87.4C891.234 84.7333 898.834 83.4 907.767 83.4C917.767 83.4 926.767 85.6 934.767 90C942.767 94.4 949.101 100.533 953.767 108.4C958.567 116.133 960.967 125.133 960.967 135.4C960.967 145.933 958.567 155.133 953.767 163C948.967 170.733 942.567 176.733 934.567 181C926.567 185.267 917.634 187.4 907.767 187.4ZM899.367 167.2C906.434 167.2 912.567 165.867 917.767 163.2C923.101 160.533 927.167 156.867 929.967 152.2C932.901 147.4 934.367 141.8 934.367 135.4C934.367 125.8 931.301 118.067 925.167 112.2C919.167 106.333 910.567 103.4 899.367 103.4C892.301 103.4 885.834 104.667 879.967 107.2C874.234 109.733 869.701 113.4 866.367 118.2C863.034 122.867 861.367 128.6 861.367 135.4C861.367 141.8 862.901 147.4 865.967 152.2C869.034 156.867 873.434 160.533 879.167 163.2C884.901 165.867 891.634 167.2 899.367 167.2ZM835.367 85.6H860.167L861.367 112V225H835.367V85.6ZM973.094 85.6H1050.29V105.8H973.094V85.6ZM998.694 58.4H1024.69V185H998.694V58.4ZM1124.05 187.4C1111.51 187.4 1100.45 185.4 1090.85 181.4C1081.38 177.4 1073.98 171.6 1068.65 164C1063.31 156.267 1060.65 146.8 1060.65 135.6C1060.65 124.4 1063.31 114.933 1068.65 107.2C1073.98 99.3333 1081.38 93.4 1090.85 89.4C1100.45 85.4 1111.51 83.4 1124.05 83.4C1136.58 83.4 1147.51 85.4 1156.85 89.4C1166.31 93.4 1173.71 99.3333 1179.05 107.2C1184.38 114.933 1187.05 124.4 1187.05 135.6C1187.05 146.8 1184.38 156.267 1179.05 164C1173.71 171.6 1166.31 177.4 1156.85 181.4C1147.51 185.4 1136.58 187.4 1124.05 187.4ZM1124.05 167.4C1130.98 167.4 1137.18 166.2 1142.65 163.8C1148.25 161.267 1152.65 157.667 1155.85 153C1159.05 148.2 1160.65 142.4 1160.65 135.6C1160.65 128.8 1159.05 123 1155.85 118.2C1152.65 113.267 1148.31 109.533 1142.85 107C1137.38 104.467 1131.11 103.2 1124.05 103.2C1117.11 103.2 1110.85 104.467 1105.25 107C1099.65 109.533 1095.18 113.2 1091.85 118C1088.65 122.8 1087.05 128.667 1087.05 135.6C1087.05 142.4 1088.65 148.2 1091.85 153C1095.05 157.667 1099.45 161.267 1105.05 163.8C1110.65 166.2 1116.98 167.4 1124.05 167.4ZM1206.27 85.6H1232.27V185H1206.27V85.6ZM1278.47 83.4C1284.6 83.4 1290.27 84.2 1295.47 85.8C1300.67 87.4 1305.2 89.8667 1309.07 93.2C1312.93 96.5333 1315.93 100.8 1318.07 106C1320.2 111.067 1321.27 117.133 1321.27 124.2V185H1295.27V128.8C1295.27 120.4 1293.2 114.267 1289.07 110.4C1285.07 106.4 1278.47 104.4 1269.27 104.4C1262.33 104.4 1256.07 105.733 1250.47 108.4C1244.87 111.067 1240.33 114.467 1236.87 118.6C1233.4 122.6 1231.4 126.8 1230.87 131.2L1230.67 121C1231.33 116.333 1232.87 111.8 1235.27 107.4C1237.67 103 1240.87 99 1244.87 95.4C1249 91.6667 1253.87 88.7333 1259.47 86.6C1265.07 84.4667 1271.4 83.4 1278.47 83.4ZM1377.17 55.6H1513.57V77.8H1377.17V55.6ZM1432.17 75H1458.77V185H1432.17V75ZM1609.96 185V130.4C1609.96 124.933 1609.02 120.4 1607.16 116.8C1605.29 113.2 1602.29 110.467 1598.16 108.6C1594.16 106.733 1588.76 105.8 1581.96 105.8C1575.42 105.8 1569.49 107.067 1564.16 109.6C1558.82 112 1554.49 115.2 1551.16 119.2C1547.82 123.067 1545.96 127.2 1545.56 131.6L1545.36 120.6C1546.02 116.2 1547.56 111.8 1549.96 107.4C1552.36 103 1555.56 99 1559.56 95.4C1563.56 91.8 1568.36 88.9333 1573.96 86.8C1579.69 84.5333 1586.09 83.4 1593.16 83.4C1599.29 83.4 1604.96 84.2 1610.16 85.8C1615.36 87.2667 1619.89 89.6 1623.76 92.8C1627.62 96 1630.62 100 1632.76 104.8C1634.89 109.467 1635.96 115 1635.96 121.4V185H1609.96ZM1520.96 185V45.6H1546.96V185H1520.96ZM1707.99 187.2C1698.12 187.2 1689.12 185.067 1680.99 180.8C1672.99 176.4 1666.59 170.333 1661.79 162.6C1657.12 154.733 1654.79 145.667 1654.79 135.4C1654.79 124.867 1657.19 115.733 1661.99 108C1666.79 100.267 1673.25 94.2667 1681.39 90C1689.65 85.6 1698.99 83.4 1709.39 83.4C1720.85 83.4 1730.05 85.7333 1736.99 90.4C1744.05 94.9333 1749.19 101.133 1752.39 109C1755.59 116.867 1757.19 125.667 1757.19 135.4C1757.19 141.267 1756.25 147.267 1754.39 153.4C1752.52 159.4 1749.65 165 1745.79 170.2C1741.92 175.267 1736.85 179.4 1730.59 182.6C1724.32 185.667 1716.79 187.2 1707.99 187.2ZM1716.39 167.2C1724.25 167.2 1731.05 165.867 1736.79 163.2C1742.52 160.533 1746.92 156.8 1749.99 152C1753.05 147.2 1754.59 141.667 1754.59 135.4C1754.59 128.6 1752.99 122.867 1749.79 118.2C1746.72 113.4 1742.32 109.8 1736.59 107.4C1730.99 104.867 1724.25 103.6 1716.39 103.6C1705.32 103.6 1696.72 106.533 1690.59 112.4C1684.45 118.133 1681.39 125.8 1681.39 135.4C1681.39 141.8 1682.85 147.4 1685.79 152.2C1688.72 156.867 1692.79 160.533 1697.99 163.2C1703.32 165.867 1709.45 167.2 1716.39 167.2ZM1754.59 85.6H1780.59V185H1756.39C1756.39 185 1756.19 183.733 1755.79 181.2C1755.52 178.533 1755.25 175.2 1754.99 171.2C1754.72 167.2 1754.59 163.267 1754.59 159.4V85.6ZM1833.92 42V64.8H1803.72V42H1833.92ZM1805.72 85.6H1831.72V185H1805.72V85.6Z" fill="#1A1A1A"/>
<path d="M971 378.8H958.4L1032.8 262.6H1059.4V392H1032.8V298L1039.2 299.8L979.8 392H950L890.6 300.2L897 298.4V392H870.4V262.6H897L971 378.8ZM1135.13 394.2C1125.26 394.2 1116.26 392.067 1108.13 387.8C1100.13 383.4 1093.73 377.333 1088.93 369.6C1084.26 361.733 1081.93 352.667 1081.93 342.4C1081.93 331.867 1084.33 322.733 1089.13 315C1093.93 307.267 1100.39 301.267 1108.53 297C1116.79 292.6 1126.13 290.4 1136.53 290.4C1147.99 290.4 1157.19 292.733 1164.13 297.4C1171.19 301.933 1176.33 308.133 1179.53 316C1182.73 323.867 1184.33 332.667 1184.33 342.4C1184.33 348.267 1183.39 354.267 1181.53 360.4C1179.66 366.4 1176.79 372 1172.93 377.2C1169.06 382.267 1163.99 386.4 1157.73 389.6C1151.46 392.667 1143.93 394.2 1135.13 394.2ZM1143.53 374.2C1151.39 374.2 1158.19 372.867 1163.93 370.2C1169.66 367.533 1174.06 363.8 1177.13 359C1180.19 354.2 1181.73 348.667 1181.73 342.4C1181.73 335.6 1180.13 329.867 1176.93 325.2C1173.86 320.4 1169.46 316.8 1163.73 314.4C1158.13 311.867 1151.39 310.6 1143.53 310.6C1132.46 310.6 1123.86 313.533 1117.73 319.4C1111.59 325.133 1108.53 332.8 1108.53 342.4C1108.53 348.8 1109.99 354.4 1112.93 359.2C1115.86 363.867 1119.93 367.533 1125.13 370.2C1130.46 372.867 1136.59 374.2 1143.53 374.2ZM1181.73 292.6H1207.73V392H1183.53C1183.53 392 1183.33 390.733 1182.93 388.2C1182.66 385.533 1182.39 382.2 1182.13 378.2C1181.86 374.2 1181.73 370.267 1181.73 366.4V292.6ZM1227.26 359H1251.26C1252.72 363.533 1255.72 367.267 1260.26 370.2C1264.92 373 1270.99 374.4 1278.46 374.4C1283.52 374.4 1287.46 373.933 1290.26 373C1293.06 372.067 1294.99 370.733 1296.06 369C1297.12 367.133 1297.66 365.067 1297.66 362.8C1297.66 360 1296.79 357.867 1295.06 356.4C1293.32 354.8 1290.66 353.533 1287.06 352.6C1283.46 351.667 1278.86 350.8 1273.26 350C1267.66 349.067 1262.26 347.933 1257.06 346.6C1251.86 345.267 1247.26 343.533 1243.26 341.4C1239.26 339.133 1236.06 336.333 1233.66 333C1231.39 329.533 1230.26 325.333 1230.26 320.4C1230.26 315.6 1231.39 311.333 1233.66 307.6C1236.06 303.867 1239.32 300.733 1243.46 298.2C1247.72 295.667 1252.66 293.733 1258.26 292.4C1263.99 291.067 1270.12 290.4 1276.66 290.4C1286.52 290.4 1294.72 291.867 1301.26 294.8C1307.79 297.6 1312.66 301.6 1315.86 306.8C1319.19 311.867 1320.86 317.733 1320.86 324.4H1297.86C1296.79 319.467 1294.66 315.933 1291.46 313.8C1288.26 311.533 1283.32 310.4 1276.66 310.4C1270.12 310.4 1265.19 311.4 1261.86 313.4C1258.52 315.4 1256.86 318.133 1256.86 321.6C1256.86 324.4 1257.86 326.6 1259.86 328.2C1261.99 329.667 1265.06 330.867 1269.06 331.8C1273.19 332.733 1278.32 333.733 1284.46 334.8C1289.66 335.867 1294.59 337.067 1299.26 338.4C1304.06 339.733 1308.32 341.467 1312.06 343.6C1315.79 345.6 1318.72 348.333 1320.86 351.8C1323.12 355.133 1324.26 359.4 1324.26 364.6C1324.26 371 1322.39 376.4 1318.66 380.8C1315.06 385.2 1309.86 388.6 1303.06 391C1296.26 393.267 1288.12 394.4 1278.66 394.4C1270.26 394.4 1262.99 393.533 1256.86 391.8C1250.86 389.933 1245.86 387.6 1241.86 384.8C1237.86 381.867 1234.72 378.8 1232.46 375.6C1230.32 372.267 1228.86 369.133 1228.06 366.2C1227.26 363.267 1226.99 360.867 1227.26 359ZM1340.15 359H1364.15C1365.62 363.533 1368.62 367.267 1373.15 370.2C1377.82 373 1383.88 374.4 1391.35 374.4C1396.42 374.4 1400.35 373.933 1403.15 373C1405.95 372.067 1407.88 370.733 1408.95 369C1410.02 367.133 1410.55 365.067 1410.55 362.8C1410.55 360 1409.68 357.867 1407.95 356.4C1406.22 354.8 1403.55 353.533 1399.95 352.6C1396.35 351.667 1391.75 350.8 1386.15 350C1380.55 349.067 1375.15 347.933 1369.95 346.6C1364.75 345.267 1360.15 343.533 1356.15 341.4C1352.15 339.133 1348.95 336.333 1346.55 333C1344.28 329.533 1343.15 325.333 1343.15 320.4C1343.15 315.6 1344.28 311.333 1346.55 307.6C1348.95 303.867 1352.22 300.733 1356.35 298.2C1360.62 295.667 1365.55 293.733 1371.15 292.4C1376.88 291.067 1383.02 290.4 1389.55 290.4C1399.42 290.4 1407.62 291.867 1414.15 294.8C1420.68 297.6 1425.55 301.6 1428.75 306.8C1432.08 311.867 1433.75 317.733 1433.75 324.4H1410.75C1409.68 319.467 1407.55 315.933 1404.35 313.8C1401.15 311.533 1396.22 310.4 1389.55 310.4C1383.02 310.4 1378.08 311.4 1374.75 313.4C1371.42 315.4 1369.75 318.133 1369.75 321.6C1369.75 324.4 1370.75 326.6 1372.75 328.2C1374.88 329.667 1377.95 330.867 1381.95 331.8C1386.08 332.733 1391.22 333.733 1397.35 334.8C1402.55 335.867 1407.48 337.067 1412.15 338.4C1416.95 339.733 1421.22 341.467 1424.95 343.6C1428.68 345.6 1431.62 348.333 1433.75 351.8C1436.02 355.133 1437.15 359.4 1437.15 364.6C1437.15 371 1435.28 376.4 1431.55 380.8C1427.95 385.2 1422.75 388.6 1415.95 391C1409.15 393.267 1401.02 394.4 1391.55 394.4C1383.15 394.4 1375.88 393.533 1369.75 391.8C1363.75 389.933 1358.75 387.6 1354.75 384.8C1350.75 381.867 1347.62 378.8 1345.35 375.6C1343.22 372.267 1341.75 369.133 1340.95 366.2C1340.15 363.267 1339.88 360.867 1340.15 359ZM1505.44 394.2C1495.57 394.2 1486.57 392.067 1478.44 387.8C1470.44 383.4 1464.04 377.333 1459.24 369.6C1454.57 361.733 1452.24 352.667 1452.24 342.4C1452.24 331.867 1454.64 322.733 1459.44 315C1464.24 307.267 1470.71 301.267 1478.84 297C1487.11 292.6 1496.44 290.4 1506.84 290.4C1518.31 290.4 1527.51 292.733 1534.44 297.4C1541.51 301.933 1546.64 308.133 1549.84 316C1553.04 323.867 1554.64 332.667 1554.64 342.4C1554.64 348.267 1553.71 354.267 1551.84 360.4C1549.97 366.4 1547.11 372 1543.24 377.2C1539.37 382.267 1534.31 386.4 1528.04 389.6C1521.77 392.667 1514.24 394.2 1505.44 394.2ZM1513.84 374.2C1521.71 374.2 1528.51 372.867 1534.24 370.2C1539.97 367.533 1544.37 363.8 1547.44 359C1550.51 354.2 1552.04 348.667 1552.04 342.4C1552.04 335.6 1550.44 329.867 1547.24 325.2C1544.17 320.4 1539.77 316.8 1534.04 314.4C1528.44 311.867 1521.71 310.6 1513.84 310.6C1502.77 310.6 1494.17 313.533 1488.04 319.4C1481.91 325.133 1478.84 332.8 1478.84 342.4C1478.84 348.8 1480.31 354.4 1483.24 359.2C1486.17 363.867 1490.24 367.533 1495.44 370.2C1500.77 372.867 1506.91 374.2 1513.84 374.2ZM1552.04 292.6H1578.04V392H1553.84C1553.84 392 1553.64 390.733 1553.24 388.2C1552.97 385.533 1552.71 382.2 1552.44 378.2C1552.17 374.2 1552.04 370.267 1552.04 366.4V292.6ZM1651.17 376.8C1640.37 376.8 1630.84 375.2 1622.57 372C1614.44 368.667 1608.1 363.8 1603.57 357.4C1599.04 351 1596.77 343.267 1596.77 334.2C1596.77 325.267 1598.97 317.533 1603.37 311C1607.77 304.467 1614.04 299.4 1622.17 295.8C1630.44 292.2 1640.1 290.4 1651.17 290.4C1654.24 290.4 1657.17 290.6 1659.97 291C1662.9 291.4 1665.77 291.933 1668.57 292.6L1718.77 292.8V312.4C1711.97 312.533 1705.04 311.733 1697.97 310C1691.04 308.133 1684.9 306.133 1679.57 304L1678.97 302.6C1683.5 304.733 1687.77 307.4 1691.77 310.6C1695.77 313.667 1698.97 317.267 1701.37 321.4C1703.9 325.4 1705.17 330.067 1705.17 335.4C1705.17 344.067 1702.97 351.533 1698.57 357.8C1694.17 363.933 1687.9 368.667 1679.77 372C1671.77 375.2 1662.24 376.8 1651.17 376.8ZM1684.57 433V428.2C1684.57 422.067 1682.57 417.8 1678.57 415.4C1674.7 413 1669.37 411.8 1662.57 411.8H1631.57C1625.57 411.8 1620.5 411.333 1616.37 410.4C1612.37 409.467 1609.17 408.133 1606.77 406.4C1604.37 404.667 1602.64 402.6 1601.57 400.2C1600.5 397.933 1599.97 395.467 1599.97 392.8C1599.97 387.467 1601.7 383.467 1605.17 380.8C1608.64 378 1613.3 376.133 1619.17 375.2C1625.04 374.267 1631.5 374.067 1638.57 374.6L1651.17 376.8C1642.77 377.067 1636.5 377.8 1632.37 379C1628.37 380.067 1626.37 382.267 1626.37 385.6C1626.37 387.6 1627.17 389.2 1628.77 390.4C1630.37 391.467 1632.64 392 1635.57 392H1668.17C1677.1 392 1684.7 392.933 1690.97 394.8C1697.37 396.8 1702.24 400.067 1705.57 404.6C1708.9 409.267 1710.57 415.6 1710.57 423.6V433H1684.57ZM1651.17 358C1656.9 358 1661.9 357.067 1666.17 355.2C1670.57 353.333 1673.97 350.667 1676.37 347.2C1678.77 343.6 1679.97 339.333 1679.97 334.4C1679.97 329.333 1678.77 325 1676.37 321.4C1673.97 317.8 1670.64 315.067 1666.37 313.2C1662.1 311.2 1657.04 310.2 1651.17 310.2C1645.44 310.2 1640.37 311.2 1635.97 313.2C1631.57 315.067 1628.17 317.8 1625.77 321.4C1623.37 325 1622.17 329.333 1622.17 334.4C1622.17 339.333 1623.37 343.6 1625.77 347.2C1628.17 350.667 1631.5 353.333 1635.77 355.2C1640.17 357.067 1645.3 358 1651.17 358ZM1824.59 359H1849.79C1848.73 365.8 1845.86 371.867 1841.19 377.2C1836.66 382.533 1830.46 386.733 1822.59 389.8C1814.73 392.867 1805.13 394.4 1793.79 394.4C1781.13 394.4 1769.93 392.4 1760.19 388.4C1750.46 384.267 1742.86 378.333 1737.39 370.6C1731.93 362.867 1729.19 353.533 1729.19 342.6C1729.19 331.667 1731.86 322.333 1737.19 314.6C1742.53 306.733 1749.93 300.733 1759.39 296.6C1768.99 292.467 1780.19 290.4 1792.99 290.4C1806.06 290.4 1816.93 292.467 1825.59 296.6C1834.26 300.733 1840.66 307 1844.79 315.4C1849.06 323.667 1850.86 334.267 1850.19 347.2H1755.39C1756.06 352.267 1757.93 356.867 1760.99 361C1764.19 365.133 1768.46 368.4 1773.79 370.8C1779.26 373.2 1785.73 374.4 1793.19 374.4C1801.46 374.4 1808.33 373 1813.79 370.2C1819.39 367.267 1822.99 363.533 1824.59 359ZM1791.79 310.2C1782.19 310.2 1774.39 312.333 1768.39 316.6C1762.39 320.733 1758.53 325.867 1756.79 332H1824.39C1823.73 325.333 1820.53 320.067 1814.79 316.2C1809.19 312.2 1801.53 310.2 1791.79 310.2Z" fill="#1A1A1A"/>
<path d="M716.522 255.455C716.689 255.43 716.855 255.4 717.022 255.381C730.83 253.788 746.048 259.073 756.963 267.362C757.701 267.921 758.426 268.498 759.136 269.092C759.846 269.686 760.541 270.298 761.22 270.927C761.9 271.555 762.564 272.199 763.212 272.86C763.861 273.521 764.492 274.198 765.106 274.89C765.721 275.582 766.318 276.289 766.897 277.011C767.477 277.732 768.038 278.467 768.581 279.216C769.124 279.965 769.649 280.727 770.155 281.501C770.66 282.276 771.146 283.063 771.613 283.861C772.08 284.66 772.526 285.469 772.952 286.29C773.379 287.11 773.785 287.941 774.171 288.781C774.556 289.622 774.921 290.471 775.264 291.33C775.608 292.188 775.93 293.054 776.231 293.928C776.532 294.802 776.81 295.683 777.068 296.571C777.324 297.459 777.559 298.353 777.772 299.252C777.985 300.152 778.175 301.055 778.344 301.964C778.513 302.873 778.658 303.785 778.781 304.701C780.654 318.784 776.911 333.674 768.147 344.926C767.554 345.689 766.942 346.437 766.311 347.169C765.681 347.902 765.033 348.619 764.367 349.32C763.701 350.021 763.019 350.705 762.319 351.373C761.62 352.041 760.905 352.691 760.173 353.324C759.442 353.957 758.695 354.571 757.934 355.167C757.172 355.763 756.396 356.341 755.606 356.899C754.816 357.457 754.013 357.996 753.196 358.515C752.38 359.034 751.551 359.533 750.71 360.011C749.869 360.49 749.016 360.948 748.153 361.384C747.289 361.821 746.415 362.237 745.531 362.632C744.647 363.026 743.754 363.398 742.852 363.748C741.949 364.099 741.038 364.427 740.12 364.734C739.201 365.04 738.276 365.323 737.344 365.584C736.411 365.845 735.472 366.083 734.528 366.298C733.584 366.513 732.635 366.705 731.682 366.873C730.728 367.041 729.771 367.187 728.81 367.309C713.581 368.896 698.776 365.749 686.51 356.28C685.778 355.705 685.06 355.114 684.357 354.504C683.654 353.895 682.966 353.269 682.294 352.626C681.621 351.983 680.964 351.325 680.323 350.65C679.683 349.976 679.06 349.286 678.453 348.58C677.846 347.876 677.257 347.157 676.686 346.423C676.114 345.689 675.561 344.942 675.026 344.182C674.491 343.422 673.975 342.649 673.477 341.863C672.98 341.078 672.502 340.281 672.044 339.473C671.586 338.664 671.148 337.845 670.729 337.015C670.311 336.185 669.913 335.345 669.535 334.496C669.158 333.647 668.803 332.789 668.467 331.923C668.132 331.057 667.817 330.182 667.525 329.301C667.233 328.419 666.962 327.531 666.712 326.635C666.463 325.741 666.236 324.841 666.031 323.934C665.826 323.029 665.643 322.119 665.482 321.204C665.321 320.289 665.183 319.371 665.068 318.45C664.957 317.54 664.868 316.627 664.801 315.713C664.735 314.799 664.692 313.883 664.67 312.966C664.65 312.05 664.652 311.133 664.676 310.217C664.7 309.3 664.747 308.385 664.817 307.471C664.887 306.557 664.979 305.645 665.094 304.735C665.209 303.825 665.346 302.919 665.505 302.016C665.665 301.113 665.847 300.214 666.05 299.321C666.254 298.427 666.48 297.538 666.728 296.654C666.976 295.772 667.246 294.896 667.537 294.026C667.828 293.156 668.141 292.294 668.475 291.44C668.809 290.586 669.164 289.74 669.539 288.903C669.915 288.066 670.311 287.239 670.727 286.422C671.144 285.604 671.581 284.797 672.037 284.001C672.493 283.205 672.969 282.421 673.465 281.648C673.959 280.875 674.473 280.116 675.007 279.368C675.539 278.621 676.09 277.887 676.659 277.166C686.544 264.796 700.82 257.251 716.522 255.455Z" fill="#51B076"/>
<path d="M273.097 0.596172C286.745 -1.72466 302.005 2.95221 313.151 10.7761C325.901 19.7265 334.456 32.5718 337.035 48.037C337.192 49.0039 337.325 49.9738 337.435 50.947C337.545 51.9207 337.631 52.8963 337.692 53.8736C337.753 54.8508 337.791 55.8295 337.804 56.8094C337.817 57.7885 337.807 58.7677 337.772 59.747C337.737 60.7257 337.678 61.703 337.595 62.679C337.512 63.6551 337.405 64.6286 337.275 65.5992C337.144 66.5698 336.989 67.5367 336.81 68.4998C336.632 69.4624 336.43 70.4202 336.205 71.3736C335.979 72.3263 335.73 73.2733 335.458 74.2144C335.186 75.1548 334.891 76.0881 334.572 77.0145C334.254 77.9403 333.913 78.8577 333.55 79.7674C333.187 80.6763 332.801 81.5758 332.393 82.4659C331.986 83.3559 331.557 84.2353 331.106 85.1043C330.655 85.9729 330.183 86.8298 329.69 87.6754C329.196 88.5211 328.683 89.3539 328.149 90.1735C327.615 90.9934 327.061 91.7995 326.487 92.5922C316.697 106.085 302.404 113.645 286.174 116.226C269.964 117.687 257.258 114.896 244.089 104.934C231.522 95.4266 223.884 81.5177 221.73 65.9029C219.51 49.8034 224.691 34.9955 234.456 22.3236C243.963 9.98795 257.745 2.54146 273.097 0.596172Z" fill="#51B076"/>
<path d="M265.735 128.998C275.023 127.784 285.98 129.09 294.819 132.076C310.965 137.532 323.326 149.942 329.766 165.689C332.788 173.076 334.664 180.977 337.443 188.482C339.583 194.331 342.006 200.059 344.713 205.666C347.421 211.273 350.399 216.731 353.648 222.04C374.684 256.095 402.723 280.909 437.458 300.135C430.64 298.671 423.868 297.015 417.143 295.168C363.056 280.221 318.039 241.936 290.477 193.336C288.164 189.456 285.977 185.489 283.736 181.566C261.323 185.895 240.45 193.916 221.693 207.127C192.579 227.631 170.932 258.949 157.564 291.688C154.271 299.755 151.007 308.29 149.479 316.883C148.963 314.551 148.625 312.203 148.36 309.83C143.067 262.494 162.198 212.742 191.299 176.103C209.579 153.09 235.794 132.355 265.735 128.998Z" fill="#51B076"/>
<path d="M600.415 243.533C610.129 242.221 619.695 244.201 627.654 250.003C636.868 256.72 642.407 266.694 644.075 277.907C644.215 278.824 644.324 279.744 644.405 280.668C644.485 281.592 644.536 282.517 644.556 283.444C644.576 284.371 644.567 285.298 644.527 286.224C644.488 287.151 644.418 288.074 644.318 288.996C644.219 289.918 644.09 290.836 643.932 291.749C643.773 292.663 643.585 293.57 643.367 294.472C643.15 295.373 642.904 296.266 642.629 297.152C642.354 298.038 642.05 298.913 641.719 299.779C638.051 309.108 630.998 316.889 625.197 324.925C616.612 336.859 607.963 348.745 599.251 360.586C634.609 363.753 669.696 369.975 704.986 373.875L779.106 381.491C789.521 382.551 800.304 382.974 810.62 384.606C813.556 385.071 815.915 386.16 818.007 388.303C820.519 390.875 822.164 394.423 822.1 398.056C822.036 401.734 820.141 405.274 817.538 407.796C815.048 410.209 813.058 410.86 809.662 411.166C801.208 411.927 792.241 411.309 783.734 411.33L730.601 411.426L550.279 411.551C542.025 405.896 534.44 398.076 531.087 388.465C529.199 383.056 528.728 377.71 530.396 372.143C533.589 361.488 552.191 336.597 559.231 326.349C565.474 317.26 571.469 307.96 577.861 298.985C582.041 293.116 588.708 285.464 591.773 279.202L591.251 279.242C583.448 288.764 575.205 297.955 567.229 307.336C560.014 315.821 553.028 324.515 545.902 333.077C538.271 342.246 529.096 352.281 522.999 362.462C520.984 365.826 519.845 369.147 519.196 373.014C516.699 387.881 525.121 399.96 533.366 411.405L459.749 411.324L186.856 411.29L113.765 411.328C95.8452 411.349 77.7183 411.791 59.8785 409.835C38.9239 407.538 19.3413 402.392 0 394.076C36.9229 401.495 77.0963 393.392 107.193 370.372C114.574 364.726 120.486 357.821 127.438 351.748C138.431 342.146 152.359 334.424 165.439 328.004L167.692 326.911C224.989 299.389 276.223 299.905 337.671 311.161C371.586 317.373 395.626 322.767 430.586 317.135C466.224 311.393 499.875 294.4 530.861 276.57C553.324 263.645 573.925 247.143 600.415 243.533Z" fill="#51B076"/>
</svg>
